<?xml version="1.0" encoding="utf-8"?>
<!-- Generator: Adobe Illustrator 26.4.1, SVG Export Plug-In . SVG Version: 6.00 Build 0)  -->
<svg version="1.1" xmlns="http://www.w3.org/2000/svg" xmlns:xlink="http://www.w3.org/1999/xlink" x="0px" y="0px"
	 viewBox="0 0 595.3 439.2" style="enable-background:new 0 0 595.3 439.2;" xml:space="preserve">
<style type="text/css">
	.st0{fill:#FAF8F4;}
	.st1{fill:#0E4171;}
	.st2{fill:#E53F33;}
	.st3{fill:#00B1A8;}
</style>
<g id="Ebene_4">
</g>
<g id="Ebene_6">
	<g>
		<circle class="st0" cx="408.3" cy="292.9" r="11.2"/>
		<g>
			<circle class="st0" cx="304.3" cy="163.1" r="33.1"/>
			<path class="st0" d="M377.9,167.3c-2.2,38.7-34.3,69.4-73.5,69.4S233,206,230.8,167.3h-67.3c2.1,75.9,64.3,136.8,140.7,136.8
				c27.1,0,52.3-7.6,73.8-20.9V167.3H377.9z"/>
			<path class="st0" d="M304.3,89.4c0.1,0,0.3,0,0.4,0V22.5c-0.2,0-0.4,0-0.5,0c-26.9,0-52,7.5-73.4,20.6v115.7
				C233,120.1,265.1,89.4,304.3,89.4z"/>
		</g>
	</g>
	<path class="st1" d="M230.8,158.8c-0.1,1.4-0.1,2.8-0.1,4.2c0,1.4,0,2.8,0.1,4.2l0,0V158.8z"/>
	<path class="st2" d="M230.7,163.1c0-1.4,0-2.8,0.1-4.2V43.1c-40.4,24.7-67.4,69.3-67.4,120.2c0,1.3,0,2.7,0.1,4h67.3
		C230.7,165.9,230.7,164.5,230.7,163.1z"/>
	<path class="st3" d="M304.7,22.5v66.9c38.8,0.2,70.4,30.4,73.1,68.5h-20.1v10.3H378v115c40.2-24.8,67-69.2,67-119.9
		C445,85.7,382.2,22.8,304.7,22.5z"/>
	<g>
		<g>
			<path class="st0" d="M54.4,357.6c8,0,14.7,2.9,20.1,8.7c5.4,5.8,8.1,12.9,8.1,21.4c0,8.6-2.7,15.7-8.1,21.5
				c-5.4,5.7-12.1,8.6-20.1,8.6c-8.5,0-15.2-3.4-20.3-10.2v8.9H21.5v-81h12.6v32.5C39.1,361,45.9,357.6,54.4,357.6z M39.2,400.4
				c3.5,3.4,7.8,5.1,12.7,5.1c5,0,9.2-1.7,12.6-5.1c3.4-3.5,5.1-7.8,5.1-12.8c0-5.1-1.7-9.3-5.1-12.7c-3.4-3.5-7.6-5.2-12.6-5.2
				c-5,0-9.3,1.7-12.7,5.2c-3.4,3.4-5.1,7.6-5.1,12.7C34.1,392.6,35.8,396.9,39.2,400.4z"/>
			<path class="st0" d="M152.1,387.7c0,1.8-0.1,3.4-0.3,4.7h-47.5c0.9,4.2,2.9,7.6,6,10.1c3.1,2.5,6.8,3.8,11.2,3.8
				c3.6,0,6.8-0.8,9.6-2.3c2.8-1.5,4.9-3.5,6.1-6h13.7c-2.1,5.9-5.8,10.6-11.1,14.2c-5.3,3.6-11.5,5.4-18.5,5.4
				c-8.8,0-16.1-2.9-21.8-8.6c-5.9-5.7-8.8-12.9-8.8-21.5c0-8.5,2.9-15.6,8.8-21.4c5.9-5.8,13.2-8.7,21.8-8.7c8.7,0,16,2.9,21.9,8.7
				C149.1,371.9,152.1,379.1,152.1,387.7z M104.4,382.1h34.1c-1.1-4-3.1-7.2-6.2-9.6c-3.1-2.4-6.7-3.6-10.9-3.6
				c-4.1,0-7.7,1.2-10.8,3.6C107.5,374.9,105.4,378.1,104.4,382.1z"/>
			<path class="st0" d="M190.3,417.7c-8.9,0-16.2-2.9-21.9-8.6c-5.9-5.7-8.8-12.9-8.8-21.5c0-8.5,2.9-15.6,8.8-21.4
				c5.9-5.8,13.2-8.7,21.9-8.7c7.5,0,14,2.2,19.5,6.5c5.5,4.4,9,10,10.5,16.9h-13.4c-1.4-3.5-3.5-6.2-6.5-8.2c-3-2-6.3-3-10.1-3
				c-5,0-9.3,1.7-12.7,5.2c-3.4,3.4-5.1,7.6-5.1,12.7c0,5,1.7,9.3,5.1,12.8c3.5,3.4,7.8,5.1,12.7,5.1c3.8,0,7.1-1,10.1-3
				c3-2,5.1-4.8,6.5-8.2h13.4c-1.5,6.9-5,12.5-10.5,16.9C204.3,415.5,197.8,417.7,190.3,417.7z"/>
			<path class="st0" d="M275.7,358.9v45.9h7v11.5h-18.1v-6.5c-4.1,5.3-9.7,7.9-17,7.9c-6,0-11-1.8-14.9-5.4
				c-3.9-3.7-5.9-8.3-5.9-13.7c0-5.4,2-9.9,5.9-13.5c3.9-3.7,8.9-5.5,14.9-5.5H263v-8.7h-32.2v-11.9H275.7z M249.7,406.9
				c4.1,0,7.3-0.8,9.7-2.5c2.4-1.7,3.7-3.9,3.7-6.7v-7.5h-13.4c-2.8,0-5.1,0.8-7,2.4c-1.9,1.6-2.9,3.6-2.9,6c0,2.4,0.9,4.4,2.8,6
				C244.4,406,246.8,406.9,249.7,406.9z"/>
			<path class="st0" d="M360.7,357.6c6.4,0,11.5,2,15.3,6c3.9,3.9,5.9,9.1,5.9,15.5v37.3h-12.6v-33.5c0-4-1.1-7.1-3.4-9.5
				c-2.3-2.4-5.4-3.5-9.3-3.5c-4.1,0-7.3,1.2-9.8,3.7c-2.5,2.4-3.8,5.6-3.8,9.6v33.3h-12.6v-33.5c0-4-1.1-7.1-3.4-9.5
				c-2.3-2.4-5.4-3.5-9.3-3.5c-4.1,0-7.3,1.2-9.8,3.7c-2.5,2.4-3.8,5.6-3.8,9.6v33.3h-12.6v-57.4H304v7.4c4.3-5.9,10.2-8.8,17.8-8.8
				c4.4,0,8.3,1,11.5,2.9c3.3,2,5.7,4.7,7.4,8.1C345.1,361.2,351.8,357.6,360.7,357.6z"/>
			<path class="st0" d="M453.8,387.7c0,1.8-0.1,3.4-0.3,4.7H406c0.9,4.2,2.9,7.6,6,10.1c3.1,2.5,6.8,3.8,11.2,3.8
				c3.6,0,6.8-0.8,9.6-2.3c2.8-1.5,4.9-3.5,6.1-6h13.7c-2.1,5.9-5.8,10.6-11.1,14.2c-5.3,3.6-11.5,5.4-18.5,5.4
				c-8.8,0-16.1-2.9-21.8-8.6c-5.9-5.7-8.8-12.9-8.8-21.5c0-8.5,2.9-15.6,8.8-21.4c5.9-5.8,13.2-8.7,21.8-8.7c8.7,0,16,2.9,21.9,8.7
				C450.9,371.9,453.8,379.1,453.8,387.7z M406.1,382.1h34.1c-1.1-4-3.1-7.2-6.2-9.6c-3.1-2.4-6.7-3.6-10.9-3.6
				c-4.1,0-7.7,1.2-10.8,3.6C409.2,374.9,407.1,378.1,406.1,382.1z"/>
			<path class="st0" d="M475.7,414.7c-1.7,1.7-3.9,2.5-6.4,2.5c-2.6,0-4.7-0.8-6.4-2.5c-1.7-1.7-2.6-3.9-2.6-6.4
				c0-2.5,0.9-4.7,2.6-6.4c1.7-1.7,3.9-2.6,6.4-2.6c2.5,0,4.7,0.9,6.4,2.6c1.7,1.7,2.6,3.9,2.6,6.4
				C478.2,410.9,477.4,413,475.7,414.7z"/>
			<path class="st0" d="M536.1,358.9v45.9h7v11.5H525v-6.5c-4.1,5.3-9.7,7.9-17,7.9c-6,0-11-1.8-14.9-5.4c-3.9-3.7-5.9-8.3-5.9-13.7
				c0-5.4,2-9.9,5.9-13.5c3.9-3.7,8.9-5.5,14.9-5.5h15.5v-8.7h-32.2v-11.9H536.1z M510.1,406.9c4.1,0,7.3-0.8,9.7-2.5
				c2.4-1.7,3.7-3.9,3.7-6.7v-7.5h-13.4c-2.8,0-5.1,0.8-7,2.4c-1.9,1.6-2.9,3.6-2.9,6c0,2.4,0.9,4.4,2.8,6
				C504.9,406,507.2,406.9,510.1,406.9z"/>
			<path class="st0" d="M564.5,416.3h-12.6v-57.4h12.6V416.3z"/>
		</g>
	</g>
</g>
</svg>
