<?xml version="1.0" encoding="utf-8"?>
<!-- Generator: Adobe Illustrator 26.4.1, SVG Export Plug-In . SVG Version: 6.00 Build 0)  -->
<svg version="1.1" xmlns="http://www.w3.org/2000/svg" xmlns:xlink="http://www.w3.org/1999/xlink" x="0px" y="0px"
	 viewBox="0 0 595.3 578.4" style="enable-background:new 0 0 595.3 578.4;" xml:space="preserve">
<style type="text/css">
	.st0{fill:#011324;}
	.st1{fill:#0E4171;}
	.st2{fill:#E53F33;}
	.st3{fill:#00B1A8;}
</style>
<g id="Ebene_4">
</g>
<g id="Ebene_6">
	<g>
		<circle class="st0" cx="504.2" cy="548.4" r="22.2"/>
		<g>
			<circle class="st0" cx="297.2" cy="289.8" r="66"/>
			<path class="st0" d="M443.7,298.2c-4.4,77.1-68.3,138.3-146.5,138.3s-142.1-61.2-146.5-138.3H16.6
				c4.2,151.2,128.1,272.4,280.3,272.4c53.9,0,104.2-15.2,147-41.6V298.2H443.7z"/>
			<path class="st0" d="M297.2,143.1c0.3,0,0.5,0,0.8,0V9.8c-0.4,0-0.7,0-1.1,0c-53.6,0-103.6,15-146.2,41.1v230.5
				C155.1,204.3,219,143.1,297.2,143.1z"/>
		</g>
	</g>
	<path class="st1" d="M150.8,281.4c-0.2,2.8-0.2,5.6-0.2,8.4c0,2.8,0.1,5.6,0.2,8.4l0,0V281.4z"/>
	<path class="st2" d="M150.5,289.8c0-2.8,0.1-5.6,0.2-8.4V50.9c-80.5,49.3-134.2,138-134.2,239.3c0,2.7,0,5.3,0.1,8h134.1
		C150.6,295.4,150.5,292.6,150.5,289.8z"/>
	<path class="st3" d="M298,9.8v133.3c77.2,0.4,140.3,60.5,145.6,136.5h-40V300h40.3v229.1c80.1-49.4,133.5-137.9,133.5-238.9
		C577.4,135.7,452.4,10.4,298,9.8z"/>
</g>
</svg>
