<svg xmlns="http://www.w3.org/2000/svg" viewBox="0 0 300 60" fill="none">
  <!-- Shopping bag icon -->
  <g transform="translate(5, 3)">
    <rect x="4" y="12" width="40" height="40" rx="4" fill="#6B3A7D"/>
    <!-- Bag handle -->
    <path d="M16 16V10a8 8 0 0 1 16 0v6" stroke="#6B3A7D" stroke-width="3" fill="none"/>
    <!-- Heart -->
    <path d="M24 42c-6-5-12-10-12-16a6 6 0 0 1 12 0 6 6 0 0 1 12 0c0 6-6 11-12 16z" fill="#ffffff" transform="translate(0, -2) scale(0.7)" transform-origin="24 34"/>
    <path d="M17 28c0-3.5 2.5-5.5 5-5.5s4 1.5 4 4c0 2.5-1.5 4-4 6.5-2.5-2.5-5-4-5-6.5z" fill="#ffffff"/>
    <path d="M31 28c0-3.5-2.5-5.5-5-5.5s-4 1.5-4 4c0 2.5 1.5 4 4 6.5 2.5-2.5 5-4 5-6.5z" fill="#ffffff"/>
  </g>
  <!-- Text -->
  <text x="58" y="40" font-family="Arial, Helvetica, sans-serif" font-size="20" font-weight="600" fill="#6B3A7D">YouKnowMeBest</text>
</svg>